<?xml version="1.0" encoding="UTF-8"?>
<svg id="Layer_1" data-name="Layer 1" xmlns="http://www.w3.org/2000/svg" viewBox="0 0 798 454">
  <defs>
    <style>
      .cls-1 {
        fill: #e9e9e9;
      }

      .cls-2 {
        fill: #3b4146;
      }

      .cls-3 {
        fill: #3c6b8d;
      }

      .cls-4 {
        fill: #f6f6f6;
      }

      .cls-5 {
        fill: #3d4348;
      }

      .cls-6 {
        fill: #3787c3;
      }

      .cls-7 {
        fill: #3c4248;
      }

      .cls-8 {
        fill: #42484d;
      }

      .cls-9 {
        fill: #3f454a;
      }

      .cls-10 {
        fill: #fdfdfd;
      }

      .cls-11 {
        fill: #fbfbfb;
      }

      .cls-12 {
        fill: #e5e5e5;
      }

      .cls-13 {
        fill: #f47723;
      }

      .cls-14 {
        fill: #ebebeb;
      }

      .cls-15 {
        fill: #434547;
      }

      .cls-16 {
        fill: none;
        stroke: #231f20;
        stroke-miterlimit: 10;
        stroke-width: 2.01px;
      }

      .cls-17 {
        fill: #3c4247;
      }

      .cls-18 {
        fill: #3b4147;
      }

      .cls-19 {
        fill: #3a4046;
      }

      .cls-20 {
        fill: #378ac7;
      }

      .cls-21 {
        fill: #f8f8f8;
      }

      .cls-22 {
        fill: #fefefe;
      }

      .cls-23 {
        fill: #fcfcfc;
      }

      .cls-24 {
        fill: #f4721b;
      }

      .cls-25 {
        fill: #414042;
      }
    </style>
  </defs>
  <path class="cls-5" d="M46.87,219.96c.35,1.33,.36,2.65,0,3.97-.32-1.33-.29-2.65,0-3.97Z"/>
  <path class="cls-12" d="M50.01,226.08c-1.28-2.23-1.46-4.55-.55-6.95,1.05-1.07,2.22-1.65,3.7-.84,.43,.23,.84,.47,.96,1-.45,1.21-.59,2.48-.7,3.76-.78,1.42-1.5,2.9-3.42,3.04Z"/>
  <path class="cls-10" d="M50.01,226.08c1.43-.58,2.33-1.72,3.18-2.92,.54,.15,.66,.66,.89,1.07,.62,1.07,1.46,1.83,2.73,2.03,.27,.27,.11,.51-.11,.67-1.14,.82-1.11,1.8-.45,2.89,.35,.57,.26,.79-.42,.55-2.68-.42-4.63-1.84-5.82-4.28Z"/>
  <path class="cls-21" d="M56.95,232.21c.5,.83-.02,1.28-.69,1.49-1.11,.34-1.34,1.16-1.15,2.07,.18,.84,.47,1.78,1.69,1.64,.37-.04,.28,.18,.29,.4,.01,.48,.34,.72,.77,.74,.45,.02,.72-.33,.87-.7,.15-.36,.26-.75,.33-1.14,.3-1.89,1.58-3.11,2.89-4.31,.19-.17,.39-.18,.56,.05-1.8,2.04-3.08,4.32-3.22,7.1-.03,.66-.36,.67-.88,.57-2.96-.61-5.08-3.92-4.4-6.89,.13-.59,.36-.89,.99-.65,.72,.28,1.39,.23,1.95-.36Z"/>
  <path class="cls-4" d="M55.84,230.35c.16-.03,.44-.08,.36-.25-.91-1.95-.9-2,.52-3.47,.04-.04-.06-.2-.1-.31,0-.38,.15-.61,.58-.51,.47,.54-.01,.93-.3,1.2-1,.91-.98,1.86-.26,2.88,.19,.27,.37,.51-.02,.75-.26-.1-.52-.19-.78-.29Z"/>
  <path class="cls-7" d="M68.19,251.93c0,3.63,0,7.26,0,10.89-.39-.21-.32-.59-.32-.94,0-3.01,0-6.01,0-9.02,0-.34-.07-.72,.33-.93Z"/>
  <path class="cls-17" d="M95.01,278.61c-7.43,0-14.86-.02-22.29-.02-.09-.61,.4-.29,.57-.29,6.89-.02,13.77-.02,20.66-.01,.38,0,.81-.12,1.06,.33Z"/>
  <path class="cls-25" d="M57.2,225.81c-.19,.17-.39,.34-.58,.51-1.1,.43-1.55-.53-2.17-1.06-.65-.55-.88-1.38-1.25-2.11-.15-1.42,0-2.77,.82-4,.81-.88,1.79-1.49,2.92-1.87,.64,.17,1.18,.46,1.2,1.21,.02,.76-.55,.98-1.15,1.25-1.9,.88-2.17,2.97-.51,4.26,.66,.51,.91,1.03,.73,1.8Z"/>
  <path class="cls-16" d="M23.64,227.44c0-34.04,26.97-61.78,60.71-63.01-.78-.03-1.56-.05-2.34-.05-34.83,0-63.06,28.23-63.06,63.06s28.23,63.06,63.06,63.06c.79,0,1.57-.02,2.34-.05-33.74-1.23-60.71-28.97-60.71-63.01Z"/>
  <g>
    <path class="cls-16" d="M87.28,163.5c-.79,0-1.57,.02-2.34,.05,33.74,1.23,60.71,28.97,60.71,63.01s-26.97,61.78-60.71,63.01c.78,.03,1.56,.05,2.34,.05,34.83,0,63.06-28.23,63.06-63.06s-28.23-63.06-63.06-63.06Z"/>
    <path class="cls-16" d="M145.65,226.56c0-34.04-26.97-61.78-60.71-63.01-33.74,1.23-60.71,28.97-60.71,63.01s26.97,61.78,60.71,63.01c33.74-1.23,60.71-28.97,60.71-63.01Zm-42.96,23.4c-.73,.4-.98,.83-.97,1.64,.04,3.77-.03,7.54,.05,11.31,.02,1.14-.34,1.36-1.42,1.36-10.82-.04-21.65-.04-32.47,0-1.01,0-1.36-.2-1.34-1.3,.07-3.86,0-7.72,.05-11.58,0-.79-.16-1.26-.91-1.68-2.86-1.58-4.69-4-5.49-7.17-.16-.63-.38-.96-1.09-1.09-4.85-.85-7.72-5.12-6.57-9.87,.21-.86-.04-1.14-.65-1.57-2.42-1.71-3.96-4.01-4.43-6.97,.02-1.32,.01-2.65,0-3.97,.26-1.75,.98-3.3,2.08-4.66,.4-.5,.51-.87,.26-1.52-2.08-5.42,.37-10.77,5.84-12.76,.86-.31,.93-.92,1.06-1.6,1.03-5.28,5.5-9.55,10.82-10.35,.22-.03,.44,0,.66,0,.89,.18,1.77,.2,2.65,0,5.37,.02,10.9,5.07,11.73,10.7,.16,1.05,.24,2.11,.24,3.17-.01,19.28,0,38.56,0,57.84q0,2.11,2.09,2.07c.27,0,.53-.04,.79-.06,0-11.88,.02-23.75,.02-35.63,0-12.59,0-25.17,.02-37.76,0-.46-.33-1.05,.3-1.4,12.96-.8,26.11,7.54,31.47,19.97,6.94,16.11,.62,34.45-14.79,42.84Z"/>
  </g>
  <path class="cls-12" d="M79.38,248.64s-.05,.05-.07,.07c.03-.02,.05-.04,.07-.07Z"/>
  <path class="cls-22" d="M79.86,248.17c-.1,.09-.19,.19-.29,.28,0,.01,0,.03,0,.04-.67,1.83-2.24,2.32-4.29,1.34,.21,1.03-.31,1.53-1.24,1.81-1.93,.58-3.88,.54-5.85,.28-.35,.33-.18,.75-.18,1.13-.01,2.87-.01,5.75,0,8.62,0,.38-.16,.8,.18,1.13,3.63,.01,7.27,.02,10.9,.05,.54,0,.95,0,.94-.74-.09-4.65,.15-9.3-.15-13.95Z"/>
  <path class="cls-22" d="M79.57,248.5s0-.03,0-.04c-.06,.06-.13,.12-.19,.19-.02,.03-.04,.05-.07,.07h0s0,0,0,0c0,0,0,0,0,0-.78,1.22-1.88,1.55-3.24,1.17-.26-.07-.51-.4-.8-.04,2.05,.98,3.63,.49,4.29-1.34Z"/>
  <path class="cls-3" d="M89.97,240.84c.23,7.17,.02,14.34,.12,21.51,0,.17-.04,.32-.15,.45h0c.09,0,.18,.02,.27,.02,.01-7.1,.02-14.19,.04-21.29,0,0,0,0,0,0-.02-.46-.03-.91-.05-1.37,0,0,0,0,0,0-.09,.08-.17,.17-.23,.28,0,.13,0,.26,0,.38Z"/>
  <path class="cls-3" d="M89.97,240.84c0,7.24-.02,14.48-.02,21.71,0,0,0,0,0,0h0c0,.08,0,.17,0,.25,.1-.13,.15-.29,.15-.45-.1-7.17,.11-14.34-.12-21.51Z"/>
  <path class="cls-3" d="M89.97,240.45c.06-.11,.14-.2,.23-.28-.08,.01-.16,.02-.23,.03,0,.08,0,.17,0,.25Z"/>
  <path class="cls-15" d="M90.36,242.45c0,6.45,0,12.9,0,19.35,0,.35,.09,.71-.14,1.03,.42-.34,.27-.81,.27-1.23,0-6.27,0-12.54,0-18.8,0-.42,.15-.89-.24-1.25h0c.15,.29,.1,.6,.1,.91Z"/>
  <path class="cls-15" d="M90.22,262.83c.23-.32,.14-.68,.14-1.03,0-6.45,0-12.9,0-19.35,0-.31,.05-.62-.1-.91h0s0,0,0,0c-.01,7.1-.02,14.19-.04,21.29Z"/>
  <path class="cls-1" d="M79.71,245.2c-.04,.99,.03,1.98-.1,2.97,.06-.02,.13-.03,.25,.01,0-2.31,0-4.61,0-6.92-.33,1.3-.08,2.63-.14,3.94Z"/>
  <path class="cls-1" d="M79.58,242.63c-.08,2.03,.19,4.07-.27,6.08,0,0,0,0,0,0,.02-.02,.05-.05,.07-.07,.09-.15,.06-.42,.23-.48,.13-.98,.06-1.98,.1-2.97,.06-1.31-.19-2.64,.14-3.94-.45,.39-.25,.91-.27,1.37Z"/>
  <path class="cls-1" d="M79.61,248.16c-.01,.1-.02,.2-.04,.3,.1-.09,.19-.19,.29-.28-.12-.04-.19-.04-.25-.01Z"/>
  <polygon class="cls-1" points="79.31 248.71 79.31 248.71 79.31 248.71 79.31 248.71"/>
  <path class="cls-1" d="M79.38,248.64c.06-.06,.13-.12,.19-.19,.02-.1,.02-.2,.04-.3-.17,.07-.14,.34-.23,.48Z"/>
  <g>
    <path class="cls-8" d="M83.92,267.65c4.04,0,8.08,.03,12.12-.02,.95-.01,1.18,.27,1.16,1.19-.06,2.93-.01,5.86-.02,8.79-.01,3.24-2.32,5.63-5.58,5.69-.84,.02-1.19,.21-1.44,1.09-.8,2.82-3.49,4.73-6.38,4.73-2.87,0-5.47-1.84-6.32-4.61-.28-.9-.65-1.2-1.61-1.21-3.06-.04-5.38-2.39-5.43-5.41-.05-3.06,.02-6.13-.05-9.19-.02-.95,.38-1.06,1.18-1.05,4.13,.03,8.26,.01,12.38,.02Z"/>
    <path class="cls-13" d="M54.15,263.86c-.95,.06-1.57-.91-1.06-1.69,1-1.51,2.1-2.97,3.2-4.41,.35-.47,.89-.6,1.42-.24,.48,.33,.76,.82,.39,1.36-1.09,1.56-2.21,3.1-3.34,4.63-.14,.19-.45,.26-.59,.34Z"/>
    <path class="cls-13" d="M113.42,262.73c.02,.51-.24,.83-.68,1.04-.48,.22-.92,.05-1.19-.31-1.12-1.49-2.19-3.01-3.27-4.52-.35-.49-.17-.94,.21-1.31,.4-.38,.97-.48,1.32-.08,1.34,1.53,2.52,3.19,3.58,4.92,.04,.07,.02,.17,.03,.26Z"/>
    <path class="cls-13" d="M121.13,255.68c.03,.49-.13,.82-.52,1.05-.45,.27-.88,.21-1.23-.1-1.36-1.2-2.72-2.41-4.04-3.66-.49-.46-.48-1.04,0-1.53,.44-.44,.96-.47,1.43-.06,1.36,1.2,2.71,2.42,4.06,3.63,.2,.18,.31,.43,.29,.66Z"/>
    <path class="cls-13" d="M45.21,255.73c-.01-.39,.21-.66,.48-.91,1.22-1.09,2.45-2.18,3.67-3.28,.53-.48,1.09-.66,1.64-.1,.6,.61,.39,1.21-.18,1.72-1.21,1.1-2.43,2.21-3.65,3.3-.42,.37-.88,.59-1.44,.25-.39-.23-.54-.56-.52-1Z"/>
    <path class="cls-13" d="M54.02,181.28c.45-.01,.74,.26,.98,.59,.96,1.32,1.92,2.65,2.89,3.96,.47,.63,.51,1.25-.17,1.72-.64,.44-1.18,.15-1.59-.42-.99-1.36-1.97-2.72-2.96-4.08-.29-.4-.34-.82-.13-1.25,.19-.39,.55-.55,.99-.53Z"/>
    <path class="cls-13" d="M109.29,187.74c-.92-.01-1.47-.89-1-1.6,1.03-1.54,2.15-3.03,3.27-4.5,.37-.49,.93-.49,1.43-.17,.48,.31,.62,.87,.33,1.29-1.1,1.6-2.26,3.15-3.42,4.71-.16,.21-.44,.29-.61,.27Z"/>
    <path class="cls-13" d="M121.13,189.28c.04,.45-.24,.73-.54,1-1.18,1.07-2.35,2.13-3.53,3.2-.56,.5-1.18,.69-1.75,.08-.6-.63-.3-1.21,.25-1.71,1.21-1.09,2.43-2.18,3.64-3.27,.4-.36,.86-.48,1.34-.25,.38,.18,.61,.5,.58,.95Z"/>
    <path class="cls-13" d="M42.29,207.99c-1.55-.52-3.4-1.1-5.21-1.77-.49-.18-.68-.72-.5-1.24,.2-.56,.66-.91,1.24-.73,1.77,.53,3.53,1.1,5.28,1.71,.57,.2,.76,.72,.61,1.31-.14,.57-.56,.75-1.42,.71Z"/>
    <path class="cls-13" d="M125.77,209.85c-.87,.05-1.3-.1-1.46-.67-.16-.58-.01-1.12,.57-1.33,1.74-.62,3.51-1.19,5.27-1.73,.58-.18,1.05,.13,1.27,.69,.21,.52,.03,1.07-.45,1.25-1.82,.68-3.66,1.26-5.2,1.78Z"/>
    <path class="cls-13" d="M40.46,248.46c-.77,0-1.07-.24-1.26-.61-.2-.38-.2-.85,.14-1.1,1.63-1.2,3.41-2.17,5.23-3.06,.37-.18,.8,0,1.06,.34,.29,.38,.39,.96,.07,1.23-1.65,1.4-3.63,2.26-5.24,3.2Z"/>
    <path class="cls-13" d="M127.25,247.39c0,.76-.76,1.35-1.48,.98-1.64-.85-3.23-1.81-4.82-2.76-.54-.32-.57-.89-.34-1.41,.26-.58,.84-.75,1.34-.48,1.66,.9,3.29,1.88,4.92,2.86,.27,.16,.4,.47,.38,.81Z"/>
    <path class="cls-13" d="M46.23,188.23c.45-.05,.76,.21,1.06,.48,1.15,1.03,2.3,2.06,3.44,3.1,.54,.48,.91,1.05,.34,1.71-.6,.69-1.25,.46-1.84-.08-1.21-1.09-2.42-2.19-3.63-3.29-.41-.37-.52-.83-.3-1.32,.17-.38,.49-.62,.93-.6Z"/>
    <path class="cls-13" d="M75.05,178.93c0,.78-.31,1.19-.91,1.3-.61,.11-1.07-.19-1.21-.78-.4-1.77-.77-3.54-1.12-5.32-.12-.6,.16-1.07,.74-1.25,.59-.19,1.13,.07,1.27,.65,.46,1.84,.84,3.7,1.22,5.4Z"/>
    <path class="cls-13" d="M91.29,179.01c.38-1.8,.74-3.58,1.15-5.34,.13-.56,.56-.93,1.19-.81,.67,.12,1,.6,.88,1.26-.34,1.78-.71,3.55-1.11,5.32-.13,.59-.59,.91-1.19,.8-.66-.12-.95-.59-.92-1.22Z"/>
    <path class="cls-13" d="M61.82,177.29c.07-.63,.34-1,.85-1.2,.48-.19,.96,0,1.15,.4,.84,1.75,1.63,3.52,2.39,5.31,.19,.45-.07,.87-.48,1.12-.47,.28-1.08,.31-1.31-.15-.92-1.8-1.74-3.65-2.6-5.48Z"/>
    <path class="cls-13" d="M40.01,217.07c-1.45-.17-2.89-.35-4.34-.5-.82-.08-1.43-.41-1.25-1.32,.17-.9,.91-.95,1.67-.85,1.36,.17,2.72,.33,4.08,.46,.83,.08,1.72,.12,1.66,1.23-.07,1.17-1.02,.99-1.82,.97Z"/>
    <path class="cls-13" d="M129.87,238.88c-1.44-.48-3.25-1.05-5.03-1.68-.59-.21-.71-.78-.52-1.34,.2-.57,.68-.85,1.26-.68,1.73,.53,3.44,1.09,5.15,1.68,.55,.19,.87,.65,.72,1.26-.15,.59-.58,.86-1.58,.75Z"/>
    <path class="cls-13" d="M104.49,177.36c-.83,1.79-1.63,3.61-2.53,5.37-.24,.47-.83,.48-1.3,.21-.48-.27-.72-.71-.5-1.23,.73-1.7,1.48-3.4,2.27-5.07,.25-.52,.73-.78,1.33-.52,.51,.22,.71,.64,.74,1.23Z"/>
    <path class="cls-13" d="M127.88,218.95c-.78,.04-1.62,.1-1.69-.97-.07-1.02,.71-1.16,1.52-1.23,1.36-.12,2.72-.27,4.08-.44,.8-.1,1.61-.15,1.8,.82,.2,1.01-.54,1.25-1.37,1.34-1.45,.15-2.9,.32-4.34,.49Z"/>
    <path class="cls-13" d="M40.26,196.57c.18,.07,.4,.14,.59,.24,1.46,.83,2.91,1.68,4.36,2.51,.64,.37,.85,.94,.52,1.57-.32,.61-.94,.68-1.49,.38-1.55-.85-3.07-1.75-4.59-2.65-.51-.31-.7-.8-.47-1.37,.18-.46,.58-.64,1.08-.69Z"/>
    <path class="cls-13" d="M127.25,197.7c-.02,.56-.39,.86-.82,1.11-1.34,.77-2.68,1.53-4.02,2.31-.63,.37-1.3,.55-1.75-.16-.47-.75-.09-1.33,.63-1.74,1.42-.81,2.82-1.66,4.26-2.43,.86-.46,1.72,.04,1.71,.9Z"/>
    <path class="cls-13" d="M131.87,228.78c-1.53-.18-3.07-.36-4.6-.53-.73-.08-1.17-.46-1.09-1.21,.08-.76,.63-1.03,1.33-.95,1.49,.15,2.98,.36,4.47,.48,.85,.07,1.71,.16,1.61,1.26-.09,1.04-.95,.98-1.73,.94Z"/>
    <path class="cls-13" d="M38.07,237.03c-.95,.07-1.34-.2-1.5-.72-.18-.6,.1-1.08,.65-1.28,1.74-.61,3.5-1.2,5.27-1.72,.57-.17,1.04,.16,1.21,.76,.14,.51,.04,1.06-.48,1.24-1.82,.65-3.67,1.23-5.15,1.72Z"/>
    <path class="cls-13" d="M36.04,226.92c-.81,.05-1.61,0-1.64-1.05-.03-.93,.68-1.09,1.45-1.16,1.45-.13,2.89-.31,4.34-.48,.76-.09,1.49-.03,1.62,.9,.13,.93-.5,1.19-1.31,1.27-1.49,.15-2.98,.34-4.47,.51Z"/>
    <path class="cls-13" d="M84.07,178.67c-.6,.87-1.21,.86-1.81,0-.02-2.12-.07-4.25,.03-6.37,.59-.8,1.17-.8,1.76,0,.1,2.12,.05,4.24,.03,6.37Z"/>
    <path class="cls-24" d="M82.29,172.3c.34,2.12,.38,4.25-.03,6.37-.32-2.12-.36-4.25,.03-6.37Z"/>
    <path class="cls-24" d="M84.07,178.67c-.4-2.12-.36-4.24-.03-6.37,.39,2.12,.35,4.24,.03,6.37Z"/>
    <path class="cls-2" d="M70.25,189.08c-.88,.4-1.77,.38-2.65,0,.88-.16,1.77-.18,2.65,0Z"/>
    <path class="cls-23" d="M72.41,276.93c-.54-.76-.2-1.63-.26-2.45-.04-.54,.42-.47,.76-.47,7.23,0,14.45,0,21.68-.01,.55,0,.83,.15,.78,.75-.05,.7-.07,1.41-.1,2.12-.23,.31-.56,.2-.86,.2-7.08,0-14.16,0-21.24,0-.26,0-.54,.05-.76-.14Z"/>
    <path class="cls-11" d="M95.01,278.61c-.01,1.43-1.37,2.81-3.03,2.83-5.46,.06-10.91,.06-16.37,0-1.37-.01-2.38-.84-3.04-2.06-.19-.34-.16-.57,.16-.78,.25-.26,.58-.17,.88-.17,6.85,0,13.7,0,20.55,0,.29,0,.63-.11,.86,.19Z"/>
    <path class="cls-23" d="M94.75,269.45c1.27,.53,.52,1.61,.55,2.4,.03,.67-.76,.39-1.18,.39-6.79,.02-13.57-.03-20.36,.05-1.34,.01-1.88-.3-1.64-1.66,.06-.34,.01-.71,.02-1.06,.22-.33,.56-.21,.85-.21,7.04,0,14.07,0,21.11,0,.22,0,.44,0,.65,.1Z"/>
    <path class="cls-6" d="M83.77,283.34c1.2,0,2.4,.04,3.59-.01,1.06-.05,1.12,.37,.69,1.17-.98,1.83-2.49,2.7-4.56,2.6-1.92-.09-3.23-1.08-4.06-2.75-.32-.63-.34-1.07,.62-1.02,1.24,.06,2.48,.02,3.73,.02Z"/>
    <path class="cls-17" d="M72.47,272.46h22.46s0,.09,0,.13h-22.51s.04-.09,.05-.13Z"/>
    <path class="cls-19" d="M72.41,276.93c7.62-.02,15.24-.04,22.86-.06-.2,.41-.58,.34-.93,.34-7.18,0-14.37,0-21.55,0-.13,0-.25-.02-.37-.06-.02,0,0-.14,0-.22Z"/>
    <path class="cls-7" d="M94.75,269.45c-7.01,.02-14.01,.03-21.02,.05-.53,0-1.06,.04-1.59,.06,.23-.47,.67-.34,1.05-.34,6.85,0,13.71,0,20.56,0,.35,0,.72-.07,1,.23Z"/>
    <path class="cls-25" d="M67.71,228.51c-2.23-.08-4.44-1.27-5.92-3.7-.44-.73-.74-1.55,.16-2.09,.84-.5,1.35,.09,1.8,.81,1.3,2.09,3.24,2.96,5.53,2.56,2.09-.36,3.71-2.02,4.14-4.32,.16-.85,.44-1.52,1.41-1.35,.96,.16,1.05,.91,.91,1.75-.63,3.69-3.72,6.34-8.02,6.35Z"/>
    <path class="cls-25" d="M68.97,195.98c3.28-.01,6.05,2.57,6.16,5.74,.03,.79-.11,1.46-1.06,1.52-.83,.05-1.11-.46-1.23-1.23-.37-2.37-1.75-3.66-3.8-3.68-2.11-.01-3.45,1.27-3.86,3.75-.13,.78-.5,1.25-1.31,1.16-.83-.09-1.05-.69-1.03-1.44,.08-3.15,2.87-5.8,6.12-5.81Z"/>
    <path class="cls-25" d="M63.05,213.52c0-3.14,2.37-5.99,5.31-6.38,.8-.11,1.59-.09,1.75,.91,.14,.89-.48,1.19-1.27,1.36-1.87,.4-3.09,1.54-3.39,3.45-.3,1.91,.49,3.38,2.16,4.33,.73,.42,1.13,.96,.73,1.71-.47,.89-1.23,.65-1.95,.28-1.99-1.03-3.33-3.31-3.34-5.67Z"/>
    <path class="cls-25" d="M71.03,245.27c-3.41-.02-5.77-3.42-4.57-6.62,.3-.79,.69-1.56,1.72-1.17,.93,.35,.85,1.08,.51,1.88-.51,1.22-.18,2.3,.86,3.07,1.05,.77,2.18,.7,3.19-.12,.68-.56,1.36-.79,1.94,0,.59,.79,.08,1.4-.57,1.91-.9,.71-1.93,1.07-3.08,1.06Z"/>
    <path class="cls-8" d="M85.43,188.02c0,24.4,0,48.8-.01,73.2,0,.53,.28,1.17-.33,1.6-.26,.02-.53,.05-.79,.06q-2.09,.04-2.09-2.07c0-19.28,0-38.56,0-57.84,0-1.07-.08-2.12-.24-3.17-.83-5.63-6.36-10.68-11.73-10.7-.88,.21-1.77,.19-2.65,0-.22,0-.45-.04-.66,0-5.32,.79-9.79,5.07-10.82,10.35-.13,.68-.2,1.29-1.06,1.6-5.48,1.98-7.92,7.33-5.84,12.76,.25,.65,.14,1.02-.26,1.52-1.1,1.36-1.82,2.92-2.08,4.66,0,1.32,.02,2.65,0,3.97,.47,2.96,2.01,5.26,4.43,6.97,.6,.43,.85,.71,.65,1.57-1.15,4.75,1.73,9.02,6.57,9.87,.71,.12,.93,.46,1.09,1.09,.8,3.17,2.64,5.59,5.49,7.17,.75,.41,.92,.89,.91,1.68-.04,3.86,.03,7.72-.05,11.58-.02,1.09,.33,1.3,1.34,1.3,10.82-.04,21.65-.04,32.47,0,1.08,0,1.44-.22,1.42-1.36-.07-3.77,0-7.54-.05-11.31,0-.81,.24-1.24,.97-1.64,15.41-8.39,21.73-26.73,14.79-42.84-5.36-12.43-18.51-20.78-31.47-19.97Zm-5.42,74.1c.01,.73-.4,.74-.94,.74-3.63-.02-7.26-.03-10.9-.05-.33-.33-.18-.76-.18-1.13-.01-2.87-.01-5.75,0-8.62,0-.38-.16-.8,.18-1.13,1.97,.26,3.92,.3,5.85-.28,.93-.28,1.45-.77,1.24-1.81-.53-.61-1.13-.64-1.91-.42-4.12,1.17-8.22-.39-10.43-3.88-2.23-3.53-1.89-7.77,.93-11.08,.49-.57,.96-1.13,.42-1.87-.5-.68-1.15-.51-1.78-.15-1.49,.98-2.58,2.26-3.04,4.02-.16,.6-.26,1.22-.63,1.74-.51,.71-1.17,.79-1.77,.15-.24-.26-.47-.43-.8-.6-1.9-.95-2.01-3.17-.24-4.32,.47-.31,.82-.66,.91-1.23,.12-.57,.08-1.11-.34-1.57-.79-1.37-1.27-2.73,.15-4.03,.23-.21,.25-.55,.18-.87-.05-.6-.31-1.05-.74-1.49-1.69-1.76-1.49-3.37,.53-4.69,1.26-.82,1.27-1.11,.07-2.11-.71-.61-1.68-.9-2.17-1.8-.27-.51-.5-1-.43-1.59,.58-.76,.56-1.47-.22-2.09-.12-.37-.48-.51-.74-.74-1.55-1.38-1.71-2.26-.74-4.05,.51-.94,.9-1.92,1.22-2.94,.14-.11,.27-.23,.42-.32,1.52-.92,1.53-.92,1.86,.76,.36,1.85,1.08,3.54,2.17,5.08,.45,.65,1.02,1.08,1.78,.56,.74-.51,.62-1.19,.17-1.86-1.08-1.6-1.89-3.29-1.89-5.28,0-.72,.15-1.44,0-2.16,.27-7.6,9.37-12.36,16.15-8.39,3.42,2,5.32,5.03,5.49,9.02,.1,2.39,0,4.79,.06,7.19,.02,.84-.21,.9-.97,.69-2.85-.8-5.53,.96-5.88,3.76-.1,.82-.03,1.6,.95,1.74,.88,.12,1.19-.46,1.33-1.29,.25-1.44,1.2-2.19,2.46-2.1,1.25,.1,2.08,1.02,2.09,2.47,.02,5.99,.03,11.98,0,17.97,0,1.62-1.15,2.75-2.62,2.78-1.43,.03-2.6-1-2.74-2.53-.08-.92-.29-1.65-1.37-1.49-1.1,.16-1.03,1.08-.94,1.88,.37,3.24,3.58,5.28,6.65,4.16,.79-.29,1.08-.2,1.07,.63-.02,1.24-.06,2.48-.09,3.72,0,2.31,0,4.61,0,6.92,.31,4.65,.07,9.3,.15,13.95Zm.29-29.68s-.09,0-.13,0v-18.84s.09,.02,.13,.03v18.8Zm0-22.95s-.09,0-.13,.01v-8.72s.09,0,.13,0v8.7Zm10.49,24.22c-.3,2.14-.57,4.29-.59,6.46,0,0,0,0,0,0,0,0,0,0,0,0,.02,.46,.03,.91,.05,1.37,.38,.36,.23,.83,.24,1.25,0,6.27,0,12.54,0,18.8,0,.42,.15,.9-.27,1.23-.09,0-.18-.02-.27-.02h0s0,0,0,0q-2.63,.09-2.63-2.5c0-9.12,.02-18.24-.02-27.36,0-1.17,.23-1.63,1.51-1.58,2.34,.11,2.32,.02,1.99,2.34Zm13.08,13.4c-1.13,.84-2.38,1.56-3.67,2.14-1.03,.46-1.28,1.1-1.26,2.15,.06,3.33-.01,6.66,.04,9.98,.02,1.06-.25,1.54-1.41,1.47-1.37-.09-2.75-.05-4.13,0-.77,.03-1.11-.18-1.1-1.03,.04-6.92-.05-13.85,.09-20.77,.05-2.86,.36-5.74,.93-8.57,.17-.83,.49-1.04,1.29-1.12,2.12-.2,4.23-.48,6.06-1.73,1.95-1.32,2.61-3.62,1.62-5.59-.99-1.97-3.07-2.78-5.33-2.04-2.6,.84-3.7,3-4.66,5.3-.25,.59-.15,1.57-.88,1.66-1.26,.16-2.57,.11-3.84-.03-.52-.06-.31-.75-.31-1.16-.01-6.04,0-12.07,0-18.11s.02-12.07-.02-18.11c0-1,.14-1.33,1.32-1.24,7.43,.54,13.82,3.45,19.15,8.55,5.29,5.06,8.57,11.27,9.36,18.61,1.34,12.42-3.32,22.24-13.26,29.65Zm-9.41-18.65c.69-1.79,1.36-3.62,3.44-4.28,1.36-.44,2.53,.45,2.5,1.85,.03,.94-.62,1.44-1.3,1.86-1.24,.78-2.67,.91-4.07,1.1-.36,.05-.79,.05-.56-.53Z"/>
    <path class="cls-18" d="M85.29,261.3c.01-23.9,.01-47.8,.02-71.71,0-.52-.13-1.06,.12-1.57-.62,.35-.3,.94-.3,1.4-.02,12.59-.02,25.17-.02,37.76,0,11.88-.01,23.75-.02,35.63,.42-.46,.2-1.01,.2-1.52Z"/>
    <path class="cls-18" d="M85.42,261.22c.01-24.4,.01-48.8,.01-73.2-.25,.51-.12,1.05-.12,1.57,0,23.9,0,47.8-.02,71.71,0,.5,.22,1.06-.2,1.52,.61-.43,.33-1.06,.33-1.6Z"/>
    <path class="cls-6" d="M107.77,198.85c-5.33-5.09-11.72-8-19.15-8.55-1.18-.09-1.33,.25-1.32,1.24,.03,6.04,.02,12.07,.02,18.11s0,12.07,0,18.11c0,.41-.21,1.11,.31,1.16,1.27,.13,2.58,.19,3.84,.03,.73-.09,.64-1.07,.88-1.66,.96-2.3,2.06-4.45,4.66-5.3,2.25-.73,4.34,.08,5.33,2.04,.99,1.98,.33,4.27-1.62,5.59-1.83,1.24-3.95,1.53-6.06,1.73-.8,.08-1.12,.29-1.29,1.12-.58,2.83-.88,5.7-.93,8.57-.13,6.92-.05,13.85-.09,20.77,0,.85,.33,1.06,1.1,1.03,1.37-.04,2.76-.08,4.13,0,1.16,.08,1.42-.41,1.41-1.47-.05-3.33,.02-6.66-.04-9.98-.02-1.05,.23-1.68,1.26-2.15,1.28-.58,2.54-1.3,3.67-2.14,9.94-7.4,14.59-17.22,13.26-29.65-.79-7.34-4.07-13.55-9.36-18.61Zm6.87,19.44c.06,.57,.08,1.15,.12,1.79,0,.2,0,.47,0,.73,.03,.9-.04,1.81-1.23,1.78-1.06-.03-1.21-.85-1.2-1.72,.02-1.96-.24-3.89-.77-5.78-2.85-10.23-9.38-16.73-19.68-19.41-.13-.03-.26-.07-.39-.1-.88-.18-1.76-.46-1.47-1.6,.28-1.08,1.17-1.02,2.06-.79,12.23,3.15,19.62,10.95,22.29,23.25,.13,.6,.19,1.23,.25,1.84Z"/>
    <path class="cls-12" d="M76.07,249.89c1.36,.38,2.46,.05,3.24-1.17,0,0,0,0,0,0,.46-2.01,.19-4.06,.27-6.08,.02-.47-.18-.99,.27-1.37,.03-1.24,.07-2.48,.09-3.72,.01-.83-.27-.92-1.07-.63-3.07,1.12-6.28-.91-6.65-4.16-.09-.8-.15-1.72,.94-1.88,1.08-.16,1.29,.58,1.37,1.49,.14,1.54,1.31,2.56,2.74,2.53,1.48-.03,2.62-1.16,2.62-2.78,.03-5.99,.02-11.98,0-17.97,0-1.46-.84-2.38-2.09-2.47-1.26-.1-2.21,.65-2.46,2.1-.14,.83-.46,1.41-1.33,1.29-.98-.14-1.05-.92-.95-1.74,.35-2.81,3.04-4.57,5.88-3.76,.76,.21,.99,.16,.97-.69-.06-2.39,.04-4.79-.06-7.19-.16-3.99-2.07-7.02-5.49-9.02-6.78-3.97-15.88,.78-16.15,8.39,.14,.72,0,1.44,0,2.16,0,1.98,.82,3.68,1.89,5.28,.45,.67,.58,1.35-.17,1.86-.76,.52-1.32,.08-1.78-.56-1.09-1.54-1.81-3.23-2.17-5.08-.33-1.68-.34-1.68-1.86-.76-.15,.09-.28,.21-.42,.32-.31,1.02-.71,2-1.22,2.94-.97,1.79-.81,2.67,.74,4.05,.26,.23,.62,.37,.74,.74,.77,.62,.8,1.33,.22,2.09-.07,.59,.16,1.09,.43,1.59,.48,.9,1.46,1.18,2.17,1.8,1.19,1,1.18,1.29-.07,2.11-2.02,1.32-2.22,2.93-.53,4.69,.42,.44,.69,.9,.74,1.49,.07,.32,.05,.66-.18,.87-1.43,1.3-.94,2.65-.15,4.03,.41,.46,.45,1,.34,1.57-.09,.57-.44,.92-.91,1.23-1.77,1.15-1.65,3.37,.24,4.32,.32,.16,.55,.34,.8,.6,.6,.64,1.26,.56,1.77-.15,.37-.52,.47-1.14,.63-1.74,.46-1.76,1.55-3.04,3.04-4.02,.63-.36,1.28-.53,1.78,.15,.54,.73,.07,1.3-.42,1.87-2.82,3.31-3.17,7.55-.93,11.08,2.21,3.49,6.31,5.05,10.43,3.88,.78-.22,1.37-.19,1.91,.42,.29-.36,.54-.03,.8,.04Z"/>
    <path class="cls-6" d="M88.8,231.37c-1.28-.06-1.52,.41-1.51,1.58,.04,9.12,.02,18.24,.02,27.36q0,2.59,2.63,2.5s0,0,0,0c0-.08,0-.17,0-.25h0c-.23-.19-.25-.45-.25-.72,0-7.18,0-14.35,0-21.53,0-.12,.05-.23,.08-.35,.06,.08,.13,.17,.19,.25,.08,0,.16-.02,.23-.03,0,0,0,0,0,0,.02-2.17,.29-4.32,.59-6.46,.32-2.32,.35-2.24-1.99-2.34Z"/>
    <path class="cls-6" d="M95.03,228.99c1.4-.19,2.83-.32,4.07-1.1,.68-.43,1.33-.92,1.3-1.86,.03-1.4-1.14-2.29-2.5-1.85-2.08,.67-2.75,2.49-3.44,4.28-.22,.58,.2,.58,.56,.53Z"/>
    <path class="cls-5" d="M80.17,232.44s.09,0,.13,0v-18.8s-.09-.02-.13-.03v18.84Z"/>
    <path class="cls-9" d="M80.17,209.51s.09,0,.13-.01v-8.7s-.09,0-.13,0v8.72Z"/>
    <path class="cls-22" d="M92.1,193.2c-.89-.23-1.78-.29-2.06,.79-.29,1.14,.58,1.42,1.47,1.6,.13,.03,.26,.07,.39,.1,10.3,2.68,16.83,9.19,19.68,19.41,.52,1.88,.79,3.82,.77,5.78,0,.87,.14,1.69,1.2,1.72,1.19,.03,1.26-.87,1.23-1.78,0-.27,0-.53,0-.73-.04-.64-.06-1.22-.12-1.79-.06-.62-.12-1.24-.25-1.84-2.68-12.3-10.06-20.1-22.29-23.25Z"/>
  </g>
  <path class="cls-20" d="M89.83,261.78c0-6.93,0-13.87,0-20.8,0-.26-.04-.53,.13-.77-.06-.08-.13-.17-.19-.25-.03,.12-.08,.23-.08,.35,0,7.18,0,14.35,0,21.53,0,.27,.01,.53,.25,.72-.14-.24-.11-.51-.11-.78Z"/>
  <path class="cls-20" d="M89.97,240.84c0-.13,0-.26,0-.38,0,0,0,0-.01,.01,0,.12,0,.25,0,.37Z"/>
  <path class="cls-20" d="M89.97,240.84c0-.12,0-.25,0-.37,0,0,0,0,.01-.01,0-.08,0-.17,0-.25-.18,.23-.13,.5-.13,.77,0,6.93,0,13.87,0,20.8,0,.26-.03,.53,.11,.78,0,0,0,0,0,0,0-7.24,.02-14.48,.02-21.71Z"/>
  <path class="cls-13" d="M183.87,244.34v29.95h-17.29v-74.99c0-2.43,.85-4.5,2.56-6.21s3.77-2.56,6.21-2.56h28.49c8.93,0,15.58,2.28,19.96,6.82,4.54,4.55,6.82,11.28,6.82,20.21,0,8.44-2.19,15.1-6.57,19.96-4.38,4.55-10.71,6.82-18.99,6.82h-21.18Zm0-15.1h16.8c4.54,0,7.79-.97,9.74-2.92,2.11-1.78,3.17-4.87,3.17-9.25,0-3.73-.97-6.73-2.92-9.01-2.27-1.95-5.28-2.92-9.01-2.92h-17.77v24.1Z"/>
  <path class="cls-13" d="M233.78,274.28v-74.99c0-2.43,.85-4.5,2.56-6.21,1.7-1.7,3.77-2.56,6.21-2.56h52.1v14.37h-43.83v18.02h32.63v5.6c0,2.43-.85,4.5-2.56,6.21-1.7,1.7-3.77,2.56-6.21,2.56h-23.86v21.43h43.83v15.58h-60.87Z"/>
  <path class="cls-13" d="M297.57,274.28v-74.99c0-2.43,.85-4.5,2.56-6.21,1.7-1.7,3.77-2.56,6.21-2.56h31.89c9.09,0,15.83,1.95,20.21,5.84,4.54,4.06,6.82,9.98,6.82,17.77,0,5.2-1.14,9.5-3.41,12.9-1.95,3.25-5.03,5.6-9.25,7.06,3.73,1.3,6.33,3.25,7.79,5.84,1.46,2.43,2.35,6.57,2.68,12.42l.49,9.98v3.17c0,1.14,.08,2.19,.24,3.17,.49,2.92,1.46,4.79,2.92,5.6h-18.99c-.81-1.62-1.3-3.32-1.46-5.11-.33-2.59-.49-4.38-.49-5.36l-.24-9.01c-.33-4.87-1.3-8.36-2.92-10.47-1.79-1.78-4.95-2.68-9.5-2.68h-18.26v32.63h-17.29Zm17.29-47.23h20.21c4.38,0,7.63-.89,9.74-2.68,2.11-1.78,3.17-4.54,3.17-8.28s-1.06-6.49-3.17-8.28c-1.95-1.95-4.87-2.92-8.77-2.92h-21.18v22.16Z"/>
  <path class="cls-13" d="M370.12,274.28v-74.99c0-2.43,.85-4.5,2.56-6.21,1.7-1.7,3.77-2.56,6.21-2.56h31.9c9.09,0,15.83,1.95,20.21,5.84,4.54,4.06,6.82,9.98,6.82,17.77,0,5.2-1.14,9.5-3.41,12.9-1.95,3.25-5.03,5.6-9.25,7.06,3.73,1.3,6.33,3.25,7.79,5.84,1.46,2.43,2.35,6.57,2.68,12.42l.49,9.98v3.17c0,1.14,.08,2.19,.24,3.17,.49,2.92,1.46,4.79,2.92,5.6h-18.99c-.81-1.62-1.3-3.32-1.46-5.11-.33-2.59-.49-4.38-.49-5.36l-.24-9.01c-.33-4.87-1.3-8.36-2.92-10.47-1.79-1.78-4.95-2.68-9.5-2.68h-18.26v32.63h-17.29Zm17.29-47.23h20.21c4.38,0,7.63-.89,9.74-2.68,2.11-1.78,3.17-4.54,3.17-8.28s-1.06-6.49-3.17-8.28c-1.95-1.95-4.87-2.92-8.77-2.92h-21.18v22.16Z"/>
  <path class="cls-13" d="M490.4,274.28h-17.29v-31.16l-30.43-52.59h21.18l17.77,36.03,14.37-31.16c1.62-3.24,4.3-4.87,8.03-4.87h13.88l-27.51,52.59v31.16Z"/>
  <path class="cls-6" d="M635.39,274.28v-74.99c0-2.43,.85-4.5,2.56-6.21,1.7-1.7,3.77-2.64,6.21-2.8h9.25l34.09,57.7v-57.7h17.04v84h-17.77l-34.33-57.7v57.7h-17.04Z"/>
  <path class="cls-6" d="M707.95,274.28v-74.99c0-2.43,.85-4.5,2.56-6.21,1.7-1.7,3.77-2.56,6.21-2.56h24.1c12.82,0,22.4,3.41,28.73,10.23,6.33,7.14,9.5,17.69,9.5,31.65,0,7.47-1.14,14.21-3.41,20.21-2.6,6.17-6.01,10.88-10.23,14.12-3.57,2.76-7.39,4.71-11.44,5.84-3.9,1.14-9.82,1.7-17.77,1.7h-28.24Zm16.8-15.1h13.88c7.95,0,13.79-2.11,17.53-6.33,3.57-3.9,5.36-10.71,5.36-20.45s-1.7-16.31-5.11-20.7c-3.25-4.38-8.44-6.57-15.58-6.57h-16.07v54.05Z"/>
  <path d="M579.53,257.48c-.04,2.15-.02,4.3-.02,6.46l-.91,3.74c-.78,1.09-2.03,1.76-3.54,1.8-.67,.01-.95,.17-1.14,.9-.51,1.86-1.96,3.24-3.7,3.72h-2.77c-1.7-.48-3.11-1.81-3.65-3.63-.22-.75-.52-.99-1.29-1-2.43-.04-4.29-1.98-4.33-4.48-.04-2.53,.01-5.07-.04-7.61-.02-.79,.3-.88,.94-.87,3.29,.03,6.58,.01,9.86,.01,3.22,0,6.44,.03,9.65-.02,.76-.01,.94,.23,.93,.98Z"/>
  <path class="cls-6" d="M565.11,198.75c-3.12,1.38-17.65-2.23-18.31,1.27-.1,.56-.16,1.06-.85,1.32-4.36,1.64-6.31,6.07-4.65,10.56,.2,.54,.11,.85-.21,1.26-.87,1.13-1.45,2.41-1.66,3.86,0,1.1,.01,2.19,0,3.29,.38,2.45,1.6,4.36,3.53,5.77,.48,.35,.68,.59,.52,1.3-.31,1.32-.25,2.59,.1,3.73v42.98h-15.34v-83.37h28.3c4.18,0,7.75,3.02,8.43,7.15l.15,.88Z"/>
  <path class="cls-6" d="M608.66,190.72v83.37h-15.34v-41.04c4.6-7.52,5.55-17.13,1.9-25.93-2.37-5.71-17.79-10.38-22.89-13.29l.77-3.1h35.55Z"/>
  <path d="M593.32,206.92l-.04,.16-.91,3.76-.99,4.08-5.82,24.02-.67,2.77c-.47,.31-.95,.6-1.45,.88-.58,.33-.78,.69-.77,1.36,.02,2.29,0,4.59,.01,6.88l-.87,3.61c-.07,0-.15,0-.23,0-8.62-.04-17.24-.03-25.87,0-.27,0-.49-.02-.65-.08l-.41-1.69c.04-2.96,0-5.92,.03-8.89,0-.65-.13-1.05-.73-1.39-.85-.49-1.59-1.08-2.22-1.76l-2.17-8.97-.16-.67h0s-.15-.61-.15-.61l-1.83-7.54-.04-.17-.04-.17-.07-.29h0s-.04-.16-.04-.16c0,0,0,0,0,0l-.36-1.48-.12-.52h0s-.46-1.89-.46-1.89l-.09-.36-.42-1.72-.07-.29-.84-3.46-.46-1.89-.24-.99-.12-.5-.3-1.24h0s-.14-.56-.14-.56c0,0,0,0,0,0l-.06-.22v24.19c-.35-1.14-.4-2.41-.1-3.73,.17-.71-.04-.95-.52-1.3-1.93-1.41-3.15-3.32-3.53-5.77,.02-1.1,0-2.19,0-3.29,.21-1.44,.78-2.73,1.66-3.86,.32-.41,.41-.72,.21-1.26-1.65-4.49,.29-8.92,4.65-10.56,.69-.26,.74-.76,.85-1.32,.66-3.5,3.08-6.47,6.19-7.85l.47,1.87,.97,3.92,.51,2.04,1.59,6.4,.46,1.87,2.96,11.91,.56,2.25,1.56,6.28s0,0,0,0l.62,2.49,2.44,9.81,.05,.22s0,0,0,0l.64,2.56v.02l1.75,7.01h0c0,1.1,0,1.51,.41,1.65l.44,1.79,.43-1.71c.12,0,.25,0,.39,0,.21,0,.42-.03,.63-.05,0-1.35,0-2.69,0-4.04l.16-.61v-.02l.1-.37v-.04l1.51-6.06v-.02l2.39-9.6s0,0,0,0c0,0,0,0,0,0h0s2.7-10.86,2.7-10.86l5.23-21.03h0s.51-2.04,.51-2.04h0s.53-2.11,.53-2.11l.46-1.87c5.1,2.91,9.37,7.58,11.74,13.29,3.65,8.81,2.7,18.42-1.9,25.93v-18.39h0v-7.74Z"/>
  <path class="cls-8" d="M579.51,263.93v.82c0,1.13-.33,2.13-.91,2.92-.78,1.09-2.03,1.76-3.54,1.8-.67,.01-.95,.17-1.14,.9-.51,1.86-1.96,3.24-3.7,3.72-.45,.13-.91,.19-1.39,.19s-.94-.07-1.38-.19c-1.7-.48-3.11-1.81-3.65-3.63-.22-.75-.52-.99-1.29-1-2.43-.04-4.29-1.98-4.33-4.48-.04-2.53,.01-5.07-.04-7.61-.02-.79,.3-.88,.94-.87,3.29,.03,6.58,.01,9.86,.01,3.22,0,6.44,.03,9.65-.02,.76-.01,.94,.23,.93,.98-.04,2.15-.02,4.3-.02,6.46Z"/>
  <path class="cls-12" d="M541.95,222.09c-1.02-1.85-1.16-3.77-.44-5.76,.84-.89,1.77-1.36,2.95-.7,.34,.19,.67,.39,.77,.83-.36,1-.47,2.06-.55,3.11-.62,1.17-1.2,2.4-2.72,2.52Z"/>
  <path class="cls-10" d="M541.95,222.09c1.14-.48,1.85-1.43,2.53-2.42,.43,.13,.52,.55,.71,.89,.49,.89,1.16,1.52,2.17,1.68,.22,.22,.09,.42-.08,.55-.91,.68-.88,1.49-.36,2.39,.28,.47,.21,.65-.34,.46-2.13-.35-3.69-1.52-4.64-3.54Z"/>
  <path class="cls-21" d="M547.47,227.17c.4,.69-.01,1.06-.55,1.23-.88,.28-1.07,.96-.91,1.71,.14,.69,.38,1.47,1.34,1.36,.29-.03,.22,.15,.23,.33,0,.4,.27,.6,.61,.62,.36,.02,.57-.27,.7-.58,.12-.3,.21-.62,.26-.95,.24-1.56,1.26-2.57,2.31-3.57,.15-.14,.31-.15,.45,.04-1.43,1.69-2.45,3.57-2.56,5.88-.03,.55-.28,.56-.7,.47-2.36-.51-4.04-3.25-3.51-5.71,.11-.49,.28-.74,.79-.53,.58,.23,1.1,.19,1.55-.3Z"/>
  <path class="cls-23" d="M545.13,216.36c-1.53-1.08-1.85-1.05-3.43,.21-.18,.15-.14-.15-.2-.24,.6-2.04,1.9-3.4,3.79-4.19,.31,1.25,1.3,1.91,2.17,2.67-.74,.58-1.4,1.28-2.33,1.55Z"/>
  <path class="cls-11" d="M544.92,204.01c.32,1.03-.37,1.78-.75,2.57-.67,1.38-.6,2.09,.58,3.08,.22,.19,.8,.22,.37,.76-.56-.11-1.05,.12-1.47,.45-.7,.55-.86,.13-1-.49-.57-2.38,.3-4.84,2.27-6.35Z"/>
  <path class="cls-4" d="M546.58,225.63c.13-.03,.35-.06,.29-.21-.72-1.62-.72-1.66,.42-2.87,.03-.03-.05-.17-.08-.26,0-.32,.12-.51,.46-.42,.37,.45-.01,.77-.24,.99-.8,.76-.78,1.54-.2,2.39,.15,.22,.29,.42-.02,.62-.21-.08-.41-.16-.62-.24Z"/>
  <path class="cls-7" d="M556.42,243.49c0,3,0,6.01,0,9.01-.31-.18-.26-.49-.26-.78,0-2.49,0-4.98,0-7.47,0-.28-.06-.6,.26-.77Z"/>
  <path class="cls-14" d="M548.5,201.35c.36,.6,.36,1.19,0,1.79-.19-.6-.17-1.19,0-1.79Z"/>
  <path class="cls-23" d="M559.79,264.2c-.43-.63-.16-1.35-.21-2.02-.03-.45,.34-.39,.61-.39,5.76,0,11.51,0,17.27,0,.44,0,.66,.12,.62,.62-.04,.58-.06,1.17-.08,1.75-.18,.26-.45,.16-.68,.16-5.64,0-11.28,0-16.92,0-.21,0-.43,.04-.61-.12Z"/>
  <path class="cls-11" d="M577.78,265.59c-.01,1.18-1.09,2.33-2.41,2.34-4.35,.05-8.69,.05-13.04,0-1.09-.01-1.9-.7-2.42-1.71-.15-.29-.13-.47,.12-.65,.2-.21,.46-.14,.7-.14,5.46,0,10.91,0,16.37,0,.23,0,.5-.09,.69,.16Z"/>
  <path class="cls-23" d="M577.58,258.01c1.01,.44,.41,1.33,.44,1.99,.02,.56-.61,.32-.94,.32-5.41,.02-10.81-.02-16.22,.04-1.06,.01-1.5-.25-1.31-1.37,.05-.28,.01-.59,.01-.88,.17-.27,.45-.17,.68-.17,5.61,0,11.21,0,16.82,0,.18,0,.35,0,.52,.08Z"/>
  <path class="cls-17" d="M559.84,260.5h17.89s0,.07,0,.11h-17.93s.03-.07,.04-.11Z"/>
  <path class="cls-19" d="M559.79,264.2c6.07-.02,12.14-.03,18.21-.05-.16,.34-.47,.28-.74,.28-5.72,0-11.45,0-17.17,0-.1,0-.2-.02-.3-.05-.02,0,0-.12,0-.18Z"/>
  <path class="cls-7" d="M577.58,258.01c-5.58,.01-11.16,.03-16.74,.04-.42,0-.85,.03-1.27,.05,.19-.39,.54-.28,.84-.28,5.46,0,10.92,0,16.38,0,.28,0,.57-.06,.79,.19Z"/>
  <path class="cls-17" d="M577.78,265.59c-5.92,0-11.84-.01-17.75-.02-.07-.51,.31-.24,.45-.24,5.48-.02,10.97-.02,16.45-.01,.3,0,.65-.1,.85,.27Z"/>
  <path class="cls-25" d="M556.04,224.1c-1.78-.07-3.53-1.05-4.72-3.06-.35-.6-.59-1.29,.13-1.73,.67-.41,1.08,.08,1.43,.67,1.04,1.73,2.58,2.45,4.4,2.12,1.66-.3,2.96-1.67,3.3-3.58,.12-.71,.35-1.26,1.12-1.12,.77,.14,.84,.75,.72,1.45-.5,3.06-2.96,5.25-6.39,5.26Z"/>
  <path class="cls-25" d="M557.04,197.17c2.62,0,4.82,2.13,4.91,4.75,.02,.65-.09,1.21-.84,1.26-.66,.04-.89-.38-.98-1.02-.29-1.96-1.39-3.03-3.03-3.04-1.68-.01-2.75,1.05-3.07,3.1-.1,.65-.4,1.03-1.04,.96-.66-.07-.83-.57-.82-1.19,.06-2.6,2.28-4.8,4.88-4.81Z"/>
  <path class="cls-25" d="M552.33,211.69c0-2.6,1.88-4.96,4.23-5.29,.64-.09,1.27-.08,1.39,.75,.11,.74-.38,.99-1.01,1.13-1.49,.33-2.46,1.28-2.7,2.86-.24,1.58,.39,2.8,1.72,3.58,.59,.34,.9,.79,.58,1.42-.37,.73-.98,.54-1.56,.23-1.59-.85-2.66-2.74-2.66-4.69Z"/>
  <path class="cls-25" d="M558.69,237.98c-2.72-.01-4.59-2.84-3.64-5.48,.24-.66,.55-1.29,1.37-.97,.74,.29,.68,.89,.41,1.56-.41,1.01-.14,1.9,.68,2.54,.84,.64,1.73,.58,2.54-.1,.54-.46,1.09-.66,1.55,0,.47,.66,.06,1.16-.45,1.58-.72,.59-1.54,.88-2.45,.88Z"/>
  <path class="cls-25" d="M547.67,221.87c-.15,.14-.31,.28-.46,.42-.87,.35-1.23-.44-1.73-.87-.52-.45-.7-1.14-1-1.75-.12-1.17,0-2.3,.65-3.31,.65-.73,1.43-1.23,2.33-1.55,.51,.14,.94,.38,.95,1,.01,.63-.44,.81-.91,1.04-1.51,.73-1.73,2.46-.41,3.53,.52,.42,.72,.85,.58,1.49Z"/>
  <path class="cls-8" d="M595.23,207.12c-2.37-5.71-6.64-10.38-11.74-13.29-4.1-2.34-8.73-3.55-13.32-3.25,0,18.95,0,37.9,0,56.85v.04c0,1.24,0,2.49,0,3.73,0,.44,.22,.97-.26,1.32-.21,.02-.42,.05-.63,.05-.14,0-.27,0-.39,0-.4,0-.68,0-.87-.07-.41-.14-.41-.56-.41-1.65h0c0-15.97,0-31.93,0-47.9,0-.88-.06-1.76-.19-2.63-.67-4.67-5.07-8.85-9.34-8.86-.7,.17-1.41,.16-2.11,0-.18,0-.36-.03-.53,0-.84,.13-1.65,.37-2.42,.72-3.12,1.38-5.54,4.35-6.19,7.85-.1,.56-.16,1.06-.85,1.32-4.36,1.64-6.31,6.07-4.65,10.56,.2,.54,.11,.85-.21,1.26-.87,1.13-1.45,2.41-1.66,3.86,0,1.1,.01,2.19,0,3.29,.38,2.45,1.6,4.36,3.53,5.77,.48,.35,.68,.59,.52,1.3-.31,1.32-.25,2.59,.1,3.73,.7,2.26,2.57,3.98,5.14,4.45,.56,.1,.74,.38,.87,.9,.4,1.64,1.12,3.04,2.16,4.17,.62,.68,1.36,1.27,2.22,1.76,.6,.34,.73,.74,.73,1.39-.03,2.96,.01,5.92-.03,8.89,0,.23,0,.46,0,.7-.01,.6,.11,.87,.42,.99,.16,.06,.37,.08,.65,.08,8.62-.03,17.24-.03,25.87,0,.08,0,.16,0,.23,0,.68-.04,.91-.27,.9-1.12-.02-.83-.02-1.66-.03-2.49,0-2.29,.01-4.59-.01-6.88,0-.67,.19-1.03,.77-1.36,.5-.28,.98-.57,1.45-.88,3.5-2.28,6.34-5.25,8.43-8.66,4.6-7.52,5.55-17.13,1.9-25.93Zm-29.26-5.96h.11v7.21s-.07,0-.11,.01v-7.22Zm0,10.61s.07,.02,.1,.03v15.57h-.1v-15.6Zm-.13,39.53c0,.21,0,.43,0,.65,0,.61-.32,.62-.75,.62-2.89-.02-5.79-.03-8.68-.04-.27-.28-.14-.63-.14-.94,0-2.38,0-4.76,0-7.14,0-.31-.13-.66,.15-.94,1.56,.21,3.12,.24,4.66-.23,.74-.23,1.16-.64,.99-1.5-.42-.51-.9-.53-1.52-.34-3.28,.96-6.55-.32-8.31-3.21-1.78-2.92-1.5-6.43,.74-9.17,.39-.47,.76-.94,.34-1.55-.39-.56-.92-.42-1.42-.12-1.19,.81-2.05,1.87-2.42,3.33-.03,.1-.05,.2-.08,.31h0c-.06,.25-.12,.5-.21,.73-.04,.09-.08,.18-.13,.27-.02,.04-.05,.09-.08,.13-.41,.59-.93,.65-1.41,.13-.19-.21-.38-.36-.64-.49-1.51-.79-1.6-2.62-.19-3.58,.37-.26,.66-.55,.73-1.02,.09-.47,.06-.92-.27-1.3-.04-.08-.08-.15-.12-.23,0,0,0-.02,0-.02-.09-.17-.17-.33-.23-.49-.02-.06-.05-.11-.07-.17-.02-.06-.04-.11-.06-.17,0-.02-.01-.04-.01-.05,0,0,0,0,0,0,0,0,0,0,0-.01,0,0,0,0,0,0-.01-.04-.02-.08-.03-.12,0-.04-.02-.08-.02-.11,0-.04-.01-.08-.02-.13,0-.04,0-.09-.01-.13,0-.06,0-.11,0-.16s0-.1,0-.15c0-.03,0-.06,0-.1,0-.04,0-.07,.02-.11,0-.02,0-.04,.01-.06,0-.04,.02-.07,.03-.1,0-.04,.02-.07,.03-.11,0-.01,0-.02,0-.03,0,0,0-.01,0-.02,.01-.04,.03-.07,.05-.11,.04-.1,.1-.19,.16-.29,.04-.06,.08-.12,.13-.17,.08-.1,.16-.19,.26-.28,0,0,.02-.02,.02-.03,.02-.03,.05-.06,.07-.09,0-.02,.02-.04,.02-.06,0,0,0,0,0,0,0-.01,0-.02,0-.03,0-.02,.01-.04,.02-.06,0-.02,0-.04,.01-.07,0-.02,0-.04,0-.07,0-.03,0-.07,0-.1,0-.06,0-.12-.02-.17,0-.01,0-.03,0-.04-.04-.49-.25-.87-.59-1.23-.65-.7-.95-1.37-.9-2,0-.03,0-.05,0-.08,0,0,0,0,0-.01,0-.02,0-.04,0-.06,.01-.09,.03-.17,.06-.26,0-.02,.01-.04,.02-.06,0-.03,.02-.06,.03-.09,0-.03,.02-.05,.03-.08,0,0,0-.02,.01-.03,.02-.04,.04-.07,.06-.11,.02-.03,.04-.07,.06-.1,.06-.1,.14-.2,.22-.31,.03-.04,.07-.08,.11-.12,.07-.07,.14-.14,.22-.21,.03-.03,.07-.06,.11-.09,.07-.06,.14-.11,.21-.16,.05-.04,.1-.08,.16-.11,1-.68,1.01-.92,.06-1.75-.01-.01-.02-.02-.03-.03-.01-.02-.03-.03-.05-.04-.07-.06-.14-.11-.22-.16-.04-.03-.07-.05-.11-.08-.15-.1-.3-.2-.45-.3-.04-.03-.08-.05-.11-.08-.05-.03-.09-.06-.13-.1-.05-.04-.1-.08-.15-.12,0,0,0,0-.01-.01-.04-.04-.09-.08-.13-.12,0,0,0-.01-.01-.02-.04-.04-.08-.08-.11-.13,0,0-.01-.01-.02-.02-.04-.05-.08-.1-.11-.16-.03-.04-.05-.09-.08-.13-.22-.42-.4-.83-.34-1.32,.47-.63,.44-1.21-.17-1.73-.09-.31-.38-.42-.59-.61-.13-.12-.25-.23-.35-.35-.04-.05-.09-.09-.12-.14-.04-.04-.07-.08-.1-.12-.06-.08-.12-.15-.17-.22-.03-.04-.05-.08-.07-.11-.04-.07-.08-.13-.11-.2-.02-.04-.03-.07-.05-.11-.03-.07-.05-.14-.07-.21,0-.04-.02-.08-.02-.12,0-.01,0-.02,0-.03,0-.04,0-.07-.01-.11,0-.09,0-.17,0-.26,0-.02,0-.04,0-.06,0,0,0-.01,0-.02,0-.04,0-.07,.01-.11,0-.04,.02-.09,.03-.14,0,0,0,0,0-.02,0-.03,.01-.05,.02-.08,0-.03,.02-.06,.03-.09,.01-.05,.03-.11,.06-.16,0,0,0,0,0,0t0,0s.04-.09,.06-.14c.07-.17,.16-.36,.26-.55,.4-.77,.72-1.59,.97-2.43,.11-.09,.21-.19,.33-.27,1.21-.76,1.22-.76,1.48,.63,.29,1.53,.86,2.93,1.73,4.21,.36,.54,.81,.89,1.41,.46,.59-.42,.49-.98,.13-1.54-.86-1.32-1.5-2.73-1.51-4.37,0-.59,.12-1.19,0-1.79,0-.05,0-.1,0-.15,0-.05,0-.11,0-.16,0-.08,.01-.16,.02-.24,0,0,0-.02,0-.03,0-.08,.02-.15,.03-.23,0-.04,.01-.08,.02-.12,.01-.1,.03-.2,.05-.29,.01-.08,.03-.15,.05-.22,0-.05,.02-.1,.03-.15,.01-.07,.03-.13,.05-.19,.01-.05,.03-.11,.04-.16,.03-.1,.06-.21,.09-.31,.04-.11,.08-.22,.12-.34,.02-.07,.05-.13,.08-.2,.01-.04,.03-.08,.05-.11,.02-.06,.05-.11,.07-.17,.03-.06,.06-.12,.09-.19,.03-.06,.06-.12,.09-.18,.02-.04,.04-.07,.06-.11,.05-.09,.09-.17,.14-.25,.03-.06,.07-.12,.1-.17,.05-.08,.1-.16,.15-.23,.05-.08,.1-.15,.16-.23,.05-.07,.1-.14,.15-.21,0,0,0-.01,0-.01,.06-.07,.11-.15,.17-.22,.04-.05,.08-.09,.12-.14,.21-.24,.43-.48,.66-.7,.07-.07,.14-.13,.21-.19,.07-.06,.14-.12,.22-.18,.08-.07,.16-.13,.25-.2,.07-.05,.13-.1,.2-.15,.07-.05,.13-.1,.2-.14,.08-.05,.16-.11,.24-.16,.09-.06,.18-.11,.27-.17,.08-.05,.16-.09,.23-.13,.17-.1,.34-.18,.52-.27,.02,0,.04-.02,.06-.03,.09-.04,.18-.08,.27-.12,.1-.04,.2-.08,.31-.12,.04-.02,.08-.03,.11-.04,.17-.06,.35-.12,.53-.17,.24-.07,.49-.13,.74-.18,.08-.02,.16-.03,.23-.04,.14-.02,.27-.04,.41-.06,.13-.02,.27-.03,.4-.04,1.63-.12,3.3,.23,4.83,1.16,2.72,1.66,4.24,4.16,4.37,7.47,.08,1.98,0,3.97,.05,5.95,.01,.7-.17,.75-.77,.57-2.27-.66-4.41,.79-4.68,3.12-.08,.68-.03,1.33,.75,1.44,.7,.1,.95-.38,1.06-1.07,.2-1.19,.95-1.82,1.96-1.73,.99,.08,1.66,.84,1.66,2.05,.02,4.96,.02,9.92,0,14.88,0,1.34-.91,2.28-2.09,2.31h-.05c-.07,0-.14,0-.2-.01-.04,0-.08,0-.12-.02-.02,0-.04,0-.06,0,0,0-.02,0-.03,0,0,0-.02,0-.03,0-.06-.01-.11-.03-.17-.04-.06-.02-.12-.04-.18-.06-.02,0-.05-.02-.07-.03-.04-.02-.08-.04-.12-.06-.05-.03-.1-.06-.15-.09,0,0,0,0-.01-.01-.04-.03-.08-.06-.12-.09h0s-.03-.03-.05-.04c-.03-.02-.05-.04-.08-.07-.02-.02-.04-.04-.07-.06,0,0,0,0-.01-.01-.02-.02-.04-.04-.06-.07,0,0,0,0,0,0-.03-.03-.05-.06-.08-.08-.03-.03-.05-.06-.07-.09-.02-.03-.04-.05-.05-.08-.04-.05-.07-.11-.1-.16-.03-.06-.06-.11-.09-.17-.02-.06-.05-.11-.07-.17,0-.02-.01-.04-.02-.05-.02-.05-.04-.11-.05-.17-.02-.06-.03-.12-.04-.19,0-.03,0-.05-.01-.07,0,0,0,0,0-.01,0-.06-.02-.12-.02-.18-.07-.76-.24-1.37-1.09-1.23-.87,.13-.82,.89-.75,1.56,0,.05,.01,.11,.02,.16,0,.05,.01,.09,.02,.14,0,.06,.02,.12,.03,.18,.01,.07,.03,.13,.05,.2,.01,.05,.03,.11,.05,.16,.03,.09,.06,.18,.09,.27,.02,.07,.05,.13,.08,.19,.02,.05,.04,.1,.07,.15,.04,.09,.08,.17,.13,.25,.04,.07,.08,.14,.13,.21,.03,.04,.06,.09,.09,.13,.02,.03,.04,.06,.06,.09,.02,.03,.04,.06,.07,.09,.04,.06,.09,.11,.14,.16,.03,.04,.06,.07,.1,.11,.18,.19,.37,.36,.58,.51,.04,.03,.08,.06,.13,.09,.05,.03,.1,.07,.15,.1,.05,.03,.1,.06,.15,.08,.05,.03,.1,.06,.15,.08,.05,.02,.09,.04,.13,.06,.08,.04,.15,.07,.23,.09,.05,.02,.09,.03,.14,.05,.05,.02,.09,.03,.14,.04,.05,.02,.1,.03,.15,.04,.05,.01,.1,.02,.15,.03,.09,.02,.19,.04,.28,.04,.03,0,.07,0,.1,.01,.03,0,.07,0,.1,0,.07,0,.14,0,.21,0,.45,0,.92-.08,1.38-.26,.63-.24,.86-.17,.85,.52-.02,1.03-.05,2.06-.07,3.08,0,1.91,0,3.82,0,5.73,.02,.33,.04,.66,.05,.98,0,.17,.01,.35,.02,.53,0,.04,0,.08,0,.12,0,.28,.02,.56,.02,.84,0,.32,.01,.63,.02,.95v.02c0,.17,0,.33,0,.5,0,.62,0,1.25,0,1.87,0,.43,0,.86,0,1.3,0,.4,0,.79,0,1.18,0,.71,0,1.41,0,2.12,0,.16,0,.33,0,.49Zm8.13,1.23c-.07,0-.15-.01-.22-.02q-2.09,.07-2.09-2.07c0-3.02,0-6.05,0-9.07v-.02c0-1.47,0-2.94,0-4.42,0-1.28,0-2.56,0-3.84,0-1.77,0-3.54-.01-5.31,0-.97,.18-1.35,1.2-1.31,1.86,.09,1.84,.02,1.59,1.94l-.32,2.67c-.02,.22-.04,.44-.06,.66,0,0,0,0,0,0,0,0,0,0,0,0l-.08,1.34c0,.22-.01,.45-.02,.67h0c.01,.38,.03,.76,.04,1.13,.3,.3,.18,.69,.19,1.04,0,5.19,0,10.38,0,15.57,0,.35,.12,.74-.22,1.02Zm11.59-13.58c-.23,.19-.47,.38-.71,.57-.9,.7-1.9,1.29-2.92,1.77-.82,.38-1.02,.91-1.01,1.78,.05,2.76,0,5.51,.03,8.27,.01,.88-.2,1.28-1.12,1.21-1.09-.07-2.19-.04-3.29,0-.61,.02-.88-.15-.88-.85,.03-5.73-.04-11.47,.07-17.2,.04-2.37,.28-4.75,.74-7.09,.14-.69,.39-.87,1.03-.93,1.69-.17,3.37-.4,4.83-1.43,1.55-1.1,2.08-3,1.29-4.63-.79-1.63-2.45-2.3-4.24-1.69-1.21,.41-2.02,1.2-2.63,2.16-.43,.67-.77,1.44-1.08,2.22-.2,.49-.12,1.3-.7,1.38-1.01,.13-2.05,.09-3.06-.02-.42-.05-.25-.62-.25-.96-.01-5,0-10,0-14.99s.01-10-.01-14.99c0-.83,.11-1.1,1.05-1.03,3.78,.29,7.22,1.37,10.32,3.22,1.75,1.04,3.4,2.33,4.93,3.86,2.25,2.24,4.05,4.75,5.33,7.53,.01,.03,.03,.06,.04,.09,1.09,2.4,1.8,5,2.09,7.8,.55,5.31-.17,10.05-2.09,14.24-1.68,3.67-4.29,6.91-7.76,9.75Zm-8.21-14.88c.55-1.48,1.08-3,2.74-3.55,1.08-.36,2.01,.37,1.99,1.53,.03,.78-.49,1.19-1.03,1.55-.99,.64-2.12,.75-3.24,.91-.29,.04-.63,.04-.45-.44Z"/>
  <path class="cls-18" d="M570.05,251.25c0,.42,.18,.88-.16,1.26,0-1.35,0-2.69,0-4.04,0-8.49,0-16.97,.01-25.46,0-10.42,0-20.84,.02-31.26,0-.38-.26-.87,.24-1.16-.2,.42-.1,.87-.1,1.3,0,18.65,0,37.31-.01,55.96h0c0,1.14,0,2.28,0,3.42Z"/>
  <path class="cls-18" d="M570.15,251.19c.01-20.2,0-40.41,0-60.61-.2,.42-.1,.87-.1,1.3,0,19.79,0,39.59-.01,59.38,0,.42,.18,.88-.16,1.25,.48-.35,.26-.88,.26-1.32Z"/>
  <path class="cls-12" d="M595.41,214.96c-.29-2.8-1-5.4-2.09-7.8-.01-.03-.03-.06-.04-.09-1.28-2.78-3.07-5.29-5.33-7.53-1.54-1.53-3.18-2.82-4.93-3.86-3.1-1.85-6.54-2.93-10.32-3.22-.94-.07-1.05,.2-1.05,1.03,.02,5,.01,10,.01,14.99s0,10,0,14.99c0,.34-.17,.91,.25,.96,1.01,.11,2.06,.15,3.06,.02,.58-.08,.51-.89,.7-1.38,.31-.78,.65-1.55,1.08-2.22,.61-.96,1.42-1.75,2.63-2.16,1.8-.61,3.46,.06,4.24,1.69,.79,1.64,.26,3.53-1.29,4.63-1.46,1.03-3.15,1.26-4.83,1.43-.64,.06-.89,.24-1.03,.93-.46,2.34-.7,4.73-.74,7.09-.1,5.73-.04,11.47-.07,17.2,0,.71,.26,.88,.88,.85,1.1-.04,2.2-.07,3.29,0,.92,.06,1.13-.34,1.12-1.21-.04-2.76,.02-5.51-.03-8.27-.01-.87,.19-1.39,1.01-1.78,1.03-.48,2.02-1.08,2.92-1.77,.24-.19,.48-.38,.71-.57,3.47-2.83,6.07-6.08,7.76-9.75,1.92-4.18,2.64-8.92,2.09-14.24Zm-1.89,3.16c0,.05,0,.11,0,.16,0,.03,0,.05,0,.07,0,.05-.01,.09-.02,.13,0,.03,0,.05-.02,.08,0,.04-.02,.07-.03,.11-.01,.04-.03,.08-.06,.12-.02,.03-.04,.06-.06,.09-.01,.02-.03,.04-.04,.05-.03,.04-.06,.07-.1,.09,0,0-.02,.02-.03,.02-.1,.07-.24,.12-.41,.14-.04,0-.09,0-.14,0h-.05c-.84-.02-.96-.7-.95-1.42,0-.25,0-.5,0-.75,0-.14-.01-.28-.02-.41,0-.12-.01-.23-.02-.35,0-.08-.01-.15-.02-.23-.01-.17-.03-.34-.05-.51,0-.08-.02-.16-.03-.24-.01-.12-.03-.24-.05-.37-.02-.11-.04-.23-.06-.34-.02-.1-.04-.21-.06-.31-.06-.31-.13-.62-.2-.93-.03-.11-.06-.22-.09-.34-.07-.25-.14-.5-.21-.75-.15-.51-.31-1-.48-1.49-.02-.07-.05-.14-.08-.21-.07-.2-.14-.39-.22-.59-.09-.22-.17-.43-.26-.65-.02-.06-.05-.12-.08-.18-.08-.2-.17-.39-.26-.58-.1-.22-.2-.43-.31-.64-.02-.04-.04-.08-.06-.11-.09-.19-.19-.37-.29-.56,0-.02-.02-.04-.03-.06-.11-.21-.23-.41-.34-.61,0,0,0-.01,0-.02-.12-.2-.24-.41-.37-.6-.13-.2-.26-.41-.39-.6-.12-.18-.24-.35-.36-.52-.03-.04-.06-.08-.09-.12-.1-.14-.2-.27-.3-.4-.02-.03-.05-.06-.07-.09-.02-.03-.05-.06-.07-.09,0-.01-.01-.02-.02-.03-.12-.15-.24-.3-.36-.44-.08-.1-.17-.2-.26-.31-.08-.1-.17-.19-.25-.28-.14-.15-.27-.3-.42-.44-.03-.03-.06-.06-.09-.09-.07-.08-.15-.15-.22-.22-.02-.02-.04-.04-.06-.05-.09-.1-.19-.18-.28-.27-.09-.09-.19-.18-.29-.27-.04-.04-.08-.07-.12-.11-.14-.13-.29-.25-.43-.37-.07-.06-.13-.11-.2-.16h0s0-.01-.01-.01c-.06-.06-.13-.11-.19-.15,0-.01-.02-.02-.03-.02-.09-.07-.18-.14-.27-.21-.13-.1-.26-.2-.39-.29-.12-.09-.25-.17-.37-.26,0,0,0-.01-.01-.01-.03-.03-.07-.05-.1-.07-.05-.04-.11-.07-.16-.11-.06-.04-.11-.07-.17-.11-.04-.03-.09-.06-.13-.08,0,0,0,0,0,0,0,0-.02-.02-.03-.02,0,0-.01-.01-.02-.01-.05-.04-.1-.07-.15-.09-.01-.01-.03-.02-.04-.03-.13-.08-.25-.15-.38-.23-.09-.06-.19-.11-.28-.17-.09-.05-.17-.1-.26-.14t0,0s-.02-.01-.02-.01c-.12-.07-.24-.13-.36-.19-.05-.03-.1-.05-.15-.08-.16-.09-.33-.17-.49-.25-.11-.05-.22-.1-.33-.15-.11-.05-.21-.1-.32-.15-.06-.03-.11-.05-.17-.07h0c-.18-.08-.36-.16-.55-.23-.05-.02-.1-.04-.15-.06-.19-.08-.38-.15-.58-.22-.04-.02-.09-.03-.13-.05-.18-.07-.37-.13-.56-.19-.09-.03-.17-.06-.26-.09-.12-.04-.24-.08-.36-.11-.02-.01-.04-.02-.06-.02-.1-.03-.21-.07-.31-.09-.01,0-.03-.01-.04-.01-.18-.06-.37-.11-.55-.16-.1-.03-.2-.06-.31-.08-.7-.14-1.4-.38-1.17-1.32,.22-.9,.93-.84,1.64-.65,.29,.08,.58,.16,.87,.24,.01,0,.02,0,.03,.01,.19,.06,.37,.12,.56,.17,.22,.07,.44,.14,.66,.22,.08,.03,.17,.06,.25,.09,.68,.24,1.34,.51,1.98,.8,.11,.05,.22,.1,.33,.15,.08,.04,.17,.08,.25,.12,.05,.02,.1,.05,.15,.07,.21,.1,.42,.21,.63,.32,.11,.06,.23,.12,.34,.18,.06,.03,.12,.06,.17,.09,.11,.06,.22,.12,.33,.18,.03,.02,.07,.04,.09,.06,.13,.08,.26,.15,.39,.23,.15,.09,.3,.18,.44,.28,.11,.07,.22,.14,.33,.21,.2,.13,.41,.27,.6,.42,.09,.06,.18,.12,.26,.19,.03,.02,.05,.04,.08,.06,.14,.1,.27,.2,.41,.31,.24,.18,.47,.37,.7,.57,.1,.09,.21,.18,.31,.27,.35,.31,.69,.63,1.02,.96,.1,.09,.19,.19,.29,.29,.38,.39,.74,.8,1.09,1.23,.09,.11,.17,.21,.26,.32,.26,.32,.5,.65,.74,1,.07,.09,.13,.18,.19,.27,.07,.11,.15,.21,.21,.32,.06,.08,.11,.17,.17,.26,.09,.14,.17,.28,.26,.42,.07,.11,.13,.22,.2,.33,.09,.15,.17,.3,.26,.46,.06,.11,.12,.22,.18,.33,.11,.2,.21,.4,.31,.6,.05,.1,.1,.2,.15,.3,.11,.23,.22,.46,.33,.7,.03,.06,.06,.12,.08,.19,.08,.18,.16,.36,.23,.55,.04,.09,.08,.18,.11,.28,.07,.17,.14,.35,.2,.52,.05,.13,.1,.27,.15,.4,.06,.16,.11,.33,.17,.49,.06,.16,.11,.33,.16,.49,0,.02,.01,.03,.02,.05,.09,.26,.17,.53,.24,.8,.04,.12,.07,.24,.1,.37,.07,.23,.13,.47,.19,.7,.06,.24,.12,.48,.17,.72,.05,.23,.1,.46,.15,.69,.04,.18,.07,.36,.09,.54h0c.01,.09,.02,.17,.03,.25,0,.08,.02,.16,.03,.25,.02,.17,.03,.33,.05,.49,.05,.47,.06,.95,.09,1.48,0,.17,0,.39,0,.61,0,.13,0,.26,0,.39Z"/>
  <path class="cls-12" d="M565.34,240.78s-.04,.04-.06,.06c.02-.01,.04-.03,.06-.06Z"/>
  <path class="cls-12" d="M562.7,241.8c1.08,.32,1.96,.04,2.58-.97,0,0,0,0,0,0,.37-1.67,.15-3.36,.22-5.04,.02-.39-.14-.82,.22-1.14,.02-1.03,.05-2.05,.07-3.08,.01-.69-.22-.76-.85-.52-2.44,.93-5-.76-5.29-3.44-.07-.67-.12-1.43,.75-1.56,.86-.13,1.03,.48,1.09,1.24,.11,1.27,1.04,2.12,2.18,2.1,1.18-.02,2.08-.96,2.09-2.3,.02-4.96,.02-9.92,0-14.88,0-1.2-.67-1.97-1.66-2.05-1-.08-1.76,.54-1.96,1.74-.11,.68-.36,1.17-1.06,1.07-.78-.12-.84-.76-.75-1.44,.28-2.33,2.42-3.78,4.69-3.12,.6,.18,.79,.13,.77-.57-.04-1.98,.03-3.97-.05-5.95-.13-3.31-1.65-5.81-4.37-7.47-5.4-3.28-12.65,.65-12.86,6.95,.11,.6,0,1.19,0,1.79,0,1.64,.65,3.05,1.51,4.37,.36,.55,.46,1.12-.13,1.54-.61,.43-1.05,.07-1.41-.46-.86-1.28-1.44-2.68-1.73-4.21-.26-1.39-.27-1.39-1.48-.63-.12,.07-.22,.18-.33,.27-.25,.84-.57,1.66-.97,2.43-.77,1.48-.64,2.21,.59,3.35,.21,.19,.49,.3,.59,.61,.62,.52,.64,1.1,.17,1.73-.06,.49,.12,.9,.34,1.32,.39,.75,1.16,.98,1.73,1.49,.95,.83,.94,1.07-.06,1.75-1.61,1.09-1.77,2.43-.42,3.88,.34,.37,.55,.74,.59,1.24,.06,.26,.04,.55-.14,.72-1.14,1.08-.75,2.2-.12,3.33,.33,.38,.36,.83,.27,1.3-.07,.47-.35,.76-.73,1.02-1.41,.95-1.32,2.79,.19,3.58,.26,.13,.44,.28,.64,.49,.48,.53,1,.46,1.41-.13,.29-.43,.37-.95,.5-1.44,.37-1.45,1.24-2.52,2.42-3.33,.5-.3,1.02-.44,1.42,.12,.43,.61,.05,1.07-.33,1.55-2.24,2.74-2.52,6.25-.74,9.17,1.76,2.89,5.03,4.18,8.3,3.21,.62-.18,1.09-.16,1.52,.35,.23-.3,.43-.03,.64,.04Z"/>
  <path class="cls-22" d="M565.72,240.39c-.08,.08-.15,.16-.23,.23,0,.01,0,.02,0,.04-.53,1.51-1.79,1.92-3.42,1.11,.17,.86-.25,1.27-.99,1.49-1.54,.48-3.09,.45-4.66,.23-.28,.27-.15,.62-.15,.94-.01,2.38-.01,4.76,0,7.14,0,.31-.12,.66,.14,.94,2.89,.01,5.79,.02,8.68,.04,.43,0,.76,0,.75-.61-.07-3.85,.12-7.7-.12-11.55Z"/>
  <path class="cls-22" d="M565.49,240.66s0-.02,0-.04c-.05,.05-.1,.1-.15,.15-.01,.02-.03,.04-.06,.06h0s0,0,0,0c0,0,0,0,0,0-.62,1.01-1.49,1.29-2.58,.97-.21-.06-.41-.33-.64-.04,1.63,.81,2.89,.4,3.42-1.11Z"/>
  <path class="cls-3" d="M573.77,234.31c.18,5.94,.01,11.88,.1,17.82,0,.14-.03,.27-.12,.38h0c.07,0,.15,.01,.22,.02,0-5.88,.02-11.75,.03-17.63,0,0,0,0,0,0-.01-.38-.03-.75-.04-1.13,0,0,0,0,0,0-.07,.07-.13,.14-.19,.23,0,.11,0,.21,0,.32Z"/>
  <path class="cls-3" d="M573.77,234.31c0,5.99-.01,11.99-.02,17.98,0,0,0,0,0,0h0c0,.07,0,.14,0,.21,.08-.11,.12-.24,.12-.38-.08-5.94,.09-11.87-.1-17.82Z"/>
  <path class="cls-3" d="M573.77,233.99c.05-.09,.11-.16,.19-.23-.06,.01-.12,.02-.19,.03,0,.07,0,.14,0,.21Z"/>
  <path class="cls-15" d="M574.08,235.65c0,5.34,0,10.68,0,16.02,0,.29,.07,.59-.11,.85,.34-.28,.22-.67,.22-1.02,0-5.19,0-10.38,0-15.57,0-.35,.12-.74-.19-1.04h0c.12,.24,.08,.5,.08,.75Z"/>
  <path class="cls-15" d="M573.97,252.52c.18-.26,.11-.57,.11-.85,0-5.34,0-10.68,0-16.02,0-.25,.04-.51-.08-.75h0s0,0,0,0c0,5.88-.02,11.75-.03,17.63Z"/>
  <path class="cls-5" d="M565.97,227.36s.07,0,.1,0v-15.57s-.07-.02-.1-.03v15.6Z"/>
  <path class="cls-9" d="M565.97,208.37s.07,0,.11-.01v-7.21s-.07,0-.11,0v7.22Z"/>
  <path class="cls-1" d="M565.6,237.92c-.04,.82,.03,1.64-.08,2.46,.05-.02,.11-.02,.2,.01,0-1.91,0-3.82,0-5.73-.26,1.08-.07,2.18-.11,3.26Z"/>
  <path class="cls-1" d="M565.5,235.8c-.07,1.68,.15,3.37-.22,5.04,0,0,0,0,0,0,.02-.02,.04-.04,.06-.06,.07-.12,.05-.34,.18-.4,.11-.81,.05-1.64,.08-2.46,.05-1.09-.15-2.18,.11-3.26-.36,.32-.2,.75-.22,1.14Z"/>
  <path class="cls-1" d="M565.52,240.38c-.01,.08-.02,.16-.03,.24,.08-.08,.15-.16,.23-.23-.09-.03-.15-.03-.2-.01Z"/>
  <polygon class="cls-1" points="565.28 240.83 565.28 240.83 565.28 240.83 565.28 240.83"/>
  <path class="cls-1" d="M565.34,240.78c.05-.05,.1-.1,.15-.15,.01-.08,.02-.16,.03-.24-.13,.06-.11,.28-.18,.4Z"/>
  <path class="cls-13" d="M573.67,251.65c0-5.74,0-11.48,0-17.23,0-.22-.03-.44,.11-.63-.05-.07-.1-.14-.15-.21-.02,.1-.06,.19-.06,.29,0,5.94,0,11.88,0,17.83,0,.22,0,.44,.2,.6-.11-.2-.09-.43-.09-.64Z"/>
  <path class="cls-20" d="M573.77,234.31c0-.11,0-.21,0-.32,0,0,0,0,0,.01,0,.1,0,.2,0,.31Z"/>
  <g>
    <g>
      <path class="cls-6" d="M572.84,226.47c-1.02-.05-1.21,.34-1.2,1.3,.03,7.55,.02,15.1,.02,22.66q0,2.14,2.09,2.07s0,0,0,0c0-.07,0-.14,0-.21h0c-.19-.16-.2-.38-.2-.6,0-5.94,0-11.88,0-17.83,0-.1,.04-.19,.06-.29,.05,.07,.1,.14,.15,.21,.06,0,.12-.01,.19-.03,0,0,0,0,0,0,.02-1.8,.23-3.58,.47-5.35,.26-1.92,.28-1.85-1.59-1.94Z"/>
      <path class="cls-6" d="M577.8,224.5c1.12-.16,2.26-.27,3.24-.91,.54-.35,1.06-.76,1.03-1.54,.03-1.16-.91-1.89-1.99-1.53-1.66,.55-2.19,2.06-2.74,3.55-.18,.48,.16,.48,.45,.44Z"/>
      <path class="cls-6" d="M575.47,194.86c-.71-.19-1.42-.24-1.64,.65-.23,.94,.47,1.18,1.17,1.32,.1,.02,.2,.06,.31,.08,8.2,2.22,13.41,7.61,15.67,16.08,.42,1.56,.63,3.16,.61,4.79,0,.72,.11,1.4,.96,1.42,.95,.02,1-.72,.98-1.47,0-.22,0-.44,0-.61-.03-.53-.05-1.01-.1-1.48-.05-.51-.1-1.03-.2-1.53-2.13-10.19-8.02-16.64-17.76-19.25Z"/>
    </g>
    <path class="cls-6" d="M573.77,234.31c0-.1,0-.2,0-.31,0,0,0,0,0-.01,0-.07,0-.14,0-.21-.14,.19-.11,.42-.11,.63,0,5.74,0,11.48,0,17.23,0,.22-.03,.44,.09,.64,0,0,0,0,0,0,0-5.99,.01-11.99,.02-17.98Z"/>
  </g>
  <path class="cls-6" d="M614.8,273.14v-73.08c0-2.37,.83-4.39,2.49-6.05s3.68-2.49,6.05-2.49h8.3v81.62h-16.85Z"/>
</svg>